<?xml version="1.0" encoding="UTF-8"?>
<svg xmlns="http://www.w3.org/2000/svg" xmlns:xlink="http://www.w3.org/1999/xlink" width="40px" height="40px" viewBox="0 0 40 40" version="1.1">
<g id="favicon">
<path style="fill:none;stroke-width:2;stroke-linecap:round;stroke-linejoin:round;stroke:rgb(0%,0%,0%);stroke-opacity:1;stroke-miterlimit:4;" d="M 46 33 L 46 27.5875 " transform="matrix(0.625,0,0,0.625,0,0)"/>
<path style="fill:none;stroke-width:2;stroke-linecap:round;stroke-linejoin:round;stroke:rgb(0%,0%,0%);stroke-opacity:1;stroke-miterlimit:4;" d="M 49.675 36 L 50.88125 60.08125 L 46 60.08125 L 46 36 " transform="matrix(0.625,0,0,0.625,0,0)"/>
<path style="fill:none;stroke-width:2;stroke-linecap:round;stroke-linejoin:round;stroke:rgb(0%,0%,0%);stroke-opacity:1;stroke-miterlimit:4;" d="M 49.25625 27.5875 L 49.5 32.45 " transform="matrix(0.625,0,0,0.625,0,0)"/>
<path style="fill:none;stroke-width:2;stroke-linecap:round;stroke-linejoin:round;stroke:rgb(0%,0%,0%);stroke-opacity:1;stroke-miterlimit:4;" d="M 20.1 32.45 L 20.1 27.5875 " transform="matrix(0.625,0,0,0.625,0,0)"/>
<path style="fill:none;stroke-width:2;stroke-linecap:round;stroke-linejoin:round;stroke:rgb(0%,0%,0%);stroke-opacity:1;stroke-miterlimit:4;" d="M 16.2125 36.4625 L 14.96875 60.08125 L 20.1 60.08125 L 20.1 36.4625 " transform="matrix(0.625,0,0,0.625,0,0)"/>
<path style="fill:none;stroke-width:2;stroke-linecap:round;stroke-linejoin:round;stroke:rgb(0%,0%,0%);stroke-opacity:1;stroke-miterlimit:4;" d="M 16.68125 27.5875 L 16.425 32.45 " transform="matrix(0.625,0,0,0.625,0,0)"/>
<path style="fill:none;stroke-width:2;stroke-linecap:round;stroke-linejoin:round;stroke:rgb(0%,0%,0%);stroke-opacity:1;stroke-miterlimit:4;" d="M 14.5 33 L 51.5 33 C 52.33125 33 53 33.66875 53 34.5 C 53 35.33125 52.33125 36 51.5 36 L 14.5 36 C 13.66875 36 13 35.33125 13 34.5 C 13 33.66875 13.66875 33 14.5 33 Z M 14.5 33 " transform="matrix(0.625,0,0,0.625,0,0)"/>
<path style="fill:none;stroke-width:2;stroke-linecap:round;stroke-linejoin:round;stroke:rgb(0%,0%,0%);stroke-opacity:1;stroke-miterlimit:4;" d="M 31 28 L 35 28 L 35 33 L 31 33 Z M 31 28 " transform="matrix(0.625,0,0,0.625,0,0)"/>
<path style="fill:none;stroke-width:2;stroke-linecap:round;stroke-linejoin:round;stroke:rgb(0%,0%,0%);stroke-opacity:1;stroke-miterlimit:4;" d="M 57 21.88125 L 57 25.975 C 41.1125 28.675 24.8875 28.675 9 25.975 L 9 22.30625 " transform="matrix(0.625,0,0,0.625,0,0)"/>
<path style="fill:none;stroke-width:2;stroke-linecap:round;stroke-linejoin:round;stroke:rgb(0%,0%,0%);stroke-opacity:1;stroke-miterlimit:4;" d="M 62 20.90625 C 42.8875 25.03125 23.1125 25.03125 4 20.90625 L 4 15.61875 C 23.1375 21.7125 42.49375 21.55 62 15.61875 Z M 62 20.90625 " transform="matrix(0.625,0,0,0.625,0,0)"/>
<path style="fill:none;stroke-width:2;stroke-linecap:round;stroke-linejoin:round;stroke:rgb(0%,0%,0%);stroke-opacity:1;stroke-miterlimit:4;" d="M 8.13125 60.08125 L 56.0125 60.08125 " transform="matrix(0.625,0,0,0.625,0,0)"/>
</g>
</svg>
